<svg width="32" height="32" viewBox="0 0 32 32" fill="none" xmlns="http://www.w3.org/2000/svg">
<path d="M29.3333 16C29.3333 23.364 23.364 29.3334 16 29.3334C8.63601 29.3334 2.66667 23.364 2.66667 16C2.66667 8.63602 8.63601 2.66669 16 2.66669C23.364 2.66669 29.3333 8.63602 29.3333 16ZM26.6667 16C26.6667 13.171 25.5429 10.4579 23.5425 8.45755C21.5421 6.45716 18.829 5.33335 16 5.33335C13.171 5.33335 10.4579 6.45716 8.45753 8.45755C6.45715 10.4579 5.33334 13.171 5.33334 16C5.33334 18.829 6.45715 21.5421 8.45753 23.5425C10.4579 25.5429 13.171 26.6667 16 26.6667C18.829 26.6667 21.5421 25.5429 23.5425 23.5425C25.5429 21.5421 26.6667 18.829 26.6667 16ZM14.6667 24V14.6667H17.3333V24H14.6667ZM16 12.3334C15.7824 12.3355 15.5667 12.2936 15.3657 12.2102C15.1648 12.1268 14.9828 12.0036 14.8307 11.848C14.67 11.6966 14.5428 11.5133 14.4572 11.3099C14.3715 11.1065 14.3294 10.8874 14.3333 10.6667C14.3333 10.2027 14.4973 9.80802 14.8293 9.48535C15.1587 9.16269 15.5493 9.00002 16 9.00002C16.4493 9.00002 16.84 9.16269 17.1693 9.48535C17.5 9.80802 17.6667 10.2027 17.6667 10.6667C17.6667 11.1307 17.5013 11.5254 17.1693 11.848C17.0172 12.0036 16.8352 12.1268 16.6343 12.2102C16.4333 12.2936 16.2176 12.3355 16 12.3334Z" fill="white"/>
</svg>
