<svg xmlns="http://www.w3.org/2000/svg" width="557.5701mm" height="128.2518mm" viewBox="0 0 1580.5137 363.5485"><g id="e3f1f2e4-8988-489e-8895-01302fea5a7e" data-name="katman 2"><g id="b4d365f6-1329-4e1d-bfda-8c5183a95e4b" data-name="Text"><g id="e6633043-4271-4610-8a6a-b102a0c4a02a" data-name="Logo"><path d="M20.8752,342.3184C3.6169,325.6633.8094,301.296,0,278.5563v-20.48q26.5122-2.912,53.04-5.6693l-.02,24.0362c-.4559,18.4158,9.1362,33.16,29.0382,30.4345,9.3579-1.2813,16.75-4.7434,21.6953-10.6975,5.637-6.7874,7.6355-18.8184,7.441-27.0249-.2978-12.568-3.007-26.0743-10.1549-37.007-9.5933-14.6731-24.3242-25.8227-37.74-36.638-18.2414-14.7051-36.406-30.889-48.4868-51.2416C4.8645,127.51,1.0957,107.525,1.0229,89.0779.9326,66.1616,5.7082,41.3444,22.52,23.1039,38.9951,5.2286,62.1455.5564,84.9922.0289c21.6924-.5009,45.4853,5.4655,61.1413,21.9763,16.2245,17.1105,19.7953,39.7184,20.6,62.3916-.0118,5.5607-.0177,8.341-.0294,13.9017q-26.601.95-53.2,1.9627l.028-17.6019q.0281-17.6011-7.1228-25.512c-4.7689-5.2874-11.8632-7.7582-20.9681-7.6863C65.8153,49.616,57.1344,65.625,57.27,83.5152a63.9291,63.9291,0,0,0,10.4482,34.9914c9.9731,14.7769,24.1589,26.3167,38.0318,37.4643,17.8874,14.3735,36.894,29.716,48.4617,49.66,9.7061,16.7344,13.171,35.6476,13.1736,54.1174.0032,23.1339-5.4674,47.1332-21.8366,65.8219-16.0028,18.27-39.7907,27.94-63.04,30.7277C61.242,358.8483,37.6211,358.4789,20.8752,342.3184Z" style="fill:#dc202d"/><path d="M261.11,4.6724q38.1432-.0552,76.2866-.1036Q365.7228,161.11,394.8729,317.5q-28.1826,2.2163-56.3435,4.6752-5.04-31.1636-10.0584-62.3307c-.0011.3642-.0016.5462-.0026.91q-31.9978,2.3686-63.9733,5.0018-5.2159,32.2974-10.4022,64.6-26.0831,2.775-52.1415,5.7584Q230.938,170.288,261.11,4.6724Zm60.8273,213.264q-12.3951-78.6339-24.6342-157.2922l-1.0243.0185Q283.6838,140.938,271.2669,221.241,296.5965,219.5087,321.9369,217.9364Z" style="fill:#dc202d"/><path d="M441.8386,4.4531q42.4971-.04,84.9943-.0719c21.8108.6236,45.9349,2.588,63.4575,16.99,15.51,12.7471,18.9814,33.2851,19.8831,52.205l-.02,12.0427c.1005,13.0984-2.2361,26.7011-9.0338,37.98-6.1676,10.233-16.2474,17.5663-27.4619,21.6134-.0007.3456-.001.5185-.0017.8641,28.7926,7.9982,42.6351,32.98,41.93,61.9869-.0172,10.3156-.0257,15.4734-.0428,25.7891.12,19.6337-6.5969,40.8684-21.9,53.8277-17.8258,15.0954-41.1839,19.2991-63.9236,21.1687q-44.3845,2.3151-88.7257,5.2909Q441.4165,159.296,441.8386,4.4531Zm78.0455,124.11q16.9094-.3724,25.3818-7.9089,8.4656-7.5319,8.5083-24.8567l.036-16.9q.0353-16.4638-6.8639-23.7756-6.8934-7.3119-21.7507-7.2065c-10.8578.0876-16.2865.1336-27.1439.23q-.1,40.4615-.2006,80.9228C506.664,128.8577,511.0706,128.7566,519.8841,128.5626ZM529.819,265.352q14.87-.6508,22.0706-7.6424,7.1924-6.9953,7.23-23.44c.0222-10.5648.0333-15.8472.0554-26.412.224-9.7482-1.14-21.812-8.3989-28.5659-7.0168-6.5283-18.3927-7.7027-27.9189-7.2484-10.0463.2928-15.0693.4461-25.1145.7664q-.1165,47.0222-.2332,94.0444Q513.6633,266.0744,529.819,265.352Z" style="fill:#dc202d"/><path d="M711.1541,4.2938q38.1456-.0076,76.2914-.0087,29.2167,149.1282,58.5367,298.2359-28.2458-.2731-56.4914-.3031-5.1341-29.5754-10.2637-59.1515c0,.3406,0,.5109,0,.8516q-32.08.0858-64.156.4362-5.1579,29.2886-10.3145,58.5773-26.19.4665-52.3744,1.1422Q681.7031,154.1711,711.1541,4.2938Zm61.4075,199.2009q-12.5568-73.6223-25.0758-147.2509l-1.0249.0016Q734.12,130.0151,721.77,203.7829,747.1652,203.5588,772.5616,203.4947Z" style="fill:#dc202d"/><path d="M891.8914,4.2994q74.4987.0223,148.9975.0727l.097,43.43q-46.3534-.3443-92.7078-.5762.0638,41.8344.1272,83.6688,36.393.5023,72.782,1.192.0454,21.6488.0907,43.2975-36.4016-.9158-72.8075-1.5827.0993,65.433.1986,130.8661-28.2363-.84-56.4771-1.4358Q892.0419,153.7658,891.8914,4.2994Z" style="fill:#dc202d"/><path d="M1086.9672,4.4069q28.16.0237,56.3205.0506.3648,132.8567.7292,265.7133,46.3871,2.8118,92.7288,6.2453l.1307,45.31q-74.5031-6.4236-149.1418-10.8627Q1087.3509,157.6351,1086.9672,4.4069Z" style="fill:#dc202d"/><path d="M1282.0373,4.62q28.1592.0387,56.3186.0809.4282,163.5093.8564,327.0186-28.1221-2.9972-56.2677-5.7514Q1282.491,165.2936,1282.0373,4.62Z" style="fill:#dc202d"/><path d="M1449.2339,170.97q-30.5081-83.3276-62.2454-166.1926,29.6946.0489,59.3892.1029,19.2615,55.5767,38.0411,111.3167l1.0221.0463Q1505.0377,60.7127,1524.1976,5.03q26.622.0544,53.2441.112-30.311,85.3673-61.7794,170.3128,33.2632,93.7592,64.8514,188.0934-29.5083-4.6084-59.07-8.8724-20.1668-62.9166-40.9541-125.63l-1.0208-.0909q-20.595,57.2666-41.6641,114.3593-26.5425-3.3519-53.11-6.4871Q1417.5231,254.1154,1449.2339,170.97Z" style="fill:#dc202d"/></g></g></g></svg>