<svg width="32" height="32" viewBox="0 0 32 32" fill="none" xmlns="http://www.w3.org/2000/svg">
<path d="M25.3333 9.33335H21.3333V8.00002C21.3333 6.58553 20.7714 5.22898 19.7712 4.22878C18.7711 3.22859 17.4145 2.66669 16 2.66669C14.5855 2.66669 13.229 3.22859 12.2288 4.22878C11.2286 5.22898 10.6667 6.58553 10.6667 8.00002V9.33335H6.66668C6.31305 9.33335 5.97392 9.47383 5.72387 9.72388C5.47382 9.97393 5.33334 10.3131 5.33334 10.6667V25.3334C5.33334 26.3942 5.75477 27.4116 6.50492 28.1618C7.25506 28.9119 8.27248 29.3334 9.33334 29.3334H22.6667C23.7275 29.3334 24.745 28.9119 25.4951 28.1618C26.2452 27.4116 26.6667 26.3942 26.6667 25.3334V10.6667C26.6667 10.3131 26.5262 9.97393 26.2762 9.72388C26.0261 9.47383 25.687 9.33335 25.3333 9.33335ZM13.3333 8.00002C13.3333 7.29278 13.6143 6.6145 14.1144 6.1144C14.6145 5.61431 15.2928 5.33335 16 5.33335C16.7073 5.33335 17.3855 5.61431 17.8856 6.1144C18.3857 6.6145 18.6667 7.29278 18.6667 8.00002V9.33335H13.3333V8.00002ZM24 25.3334C24 25.687 23.8595 26.0261 23.6095 26.2762C23.3594 26.5262 23.0203 26.6667 22.6667 26.6667H9.33334C8.97972 26.6667 8.64058 26.5262 8.39053 26.2762C8.14049 26.0261 8.00001 25.687 8.00001 25.3334V12H10.6667V13.3334C10.6667 13.687 10.8072 14.0261 11.0572 14.2762C11.3072 14.5262 11.6464 14.6667 12 14.6667C12.3536 14.6667 12.6928 14.5262 12.9428 14.2762C13.1929 14.0261 13.3333 13.687 13.3333 13.3334V12H18.6667V13.3334C18.6667 13.687 18.8072 14.0261 19.0572 14.2762C19.3072 14.5262 19.6464 14.6667 20 14.6667C20.3536 14.6667 20.6928 14.5262 20.9428 14.2762C21.1929 14.0261 21.3333 13.687 21.3333 13.3334V12H24V25.3334Z" fill="black"/>
</svg>
